<svg width="14" height="31" viewBox="0 0 14 31" fill="none" xmlns="http://www.w3.org/2000/svg">
<path d="M13.3912 15.119H9.25956V30.2804H2.9827V15.119H0V9.79087H2.9827V6.34098C2.91569 5.49325 3.03336 4.64107 3.3276 3.84322C3.62184 3.04538 4.08565 2.32085 4.68703 1.71962C5.28841 1.11839 6.01305 0.654761 6.81098 0.36072C7.6089 0.0666799 8.46111 -0.0507776 9.30882 0.0164496L13.9521 0.0339294V5.20638H10.5817C10.3936 5.19594 10.2056 5.22742 10.0311 5.29856C9.85672 5.36969 9.70029 5.47869 9.57316 5.61769C9.44602 5.75668 9.35137 5.92219 9.29604 6.10224C9.2407 6.28229 9.22607 6.4724 9.2532 6.6588V9.79564H13.9378L13.3912 15.119Z" fill="#D9222D"/>
</svg>
