<svg width="35" height="36" viewBox="0 0 35 36" fill="none" xmlns="http://www.w3.org/2000/svg">
<path fill-rule="evenodd" clip-rule="evenodd" d="M17.4964 0.42627C13.2753 0.42627 9.23005 1.99973 6.06421 4.62215C2.9191 7.45621 0.852246 11.2808 0.211568 15.4521C-0.429109 19.6235 0.395506 23.8869 2.54661 27.5247C4.5637 31.1394 7.80401 33.9267 11.6924 35.392C12.5718 35.392 12.9235 35.0423 12.9235 34.5178V31.0213C7.99889 32.2451 6.94361 29.0982 6.94361 29.0982C6.76773 28.0492 6.06421 27.0002 5.18481 26.4757C3.42601 25.2519 5.18481 25.2519 5.18481 25.2519C5.74838 25.3361 6.28295 25.5551 6.74252 25.8901C7.20208 26.2251 7.57288 26.666 7.82301 27.175C8.32997 28.029 9.1491 28.6553 10.1095 28.9233C10.5653 29.0887 11.0506 29.1585 11.5349 29.1284C12.0192 29.0984 12.492 28.969 12.9235 28.7485C12.9235 27.6995 13.4512 27.0002 14.1547 26.3009C10.2853 25.7764 6.06421 24.203 6.06421 17.5595C6.06421 15.6364 6.76773 14.0629 7.82301 12.6643C7.38472 11.098 7.5091 9.42888 8.17477 7.9439C8.17477 7.9439 9.58181 7.41941 12.9235 9.69218C15.7376 8.81804 18.9035 8.81804 21.7175 9.69218C25.2351 7.41941 26.6422 7.9439 26.6422 7.9439C27.1698 9.34253 27.3457 11.0908 26.6422 12.6643C27.7976 13.9662 28.4245 15.6487 28.401 17.3846C28.401 24.3778 24.3557 25.7764 20.4864 26.1261C20.9367 26.5837 21.2803 27.1341 21.4931 27.7383C21.7058 28.3425 21.7824 28.9858 21.7175 29.6226V34.5178C21.7175 35.0423 22.0693 35.5668 22.9487 35.392C26.9397 34.0421 30.3102 31.3122 32.4462 27.6995C34.6228 24.0252 35.4446 19.7123 34.7706 15.5012C34.0966 11.2902 31.9689 7.44371 28.7528 4.62215C25.6288 1.92603 21.6335 0.436755 17.4964 0.42627Z" fill="#D9222D"/>
</svg>
