<svg width="31" height="31" viewBox="0 0 31 31" fill="none" xmlns="http://www.w3.org/2000/svg">
<path d="M28.4037 2.46146C29.9693 4.02749 30.85 6.15049 30.8525 8.36489V21.9293C30.8496 24.1435 29.9687 26.2662 28.4029 27.8319C26.8372 29.3976 24.7145 30.2785 22.5003 30.2815H8.93752C6.72329 30.2785 4.60058 29.3976 3.03488 27.8319C1.46918 26.2662 0.58827 24.1435 0.585327 21.9293L0.585327 8.36489C0.58827 6.15065 1.46918 4.02795 3.03488 2.46225C4.60058 0.896544 6.72329 0.0156384 8.93752 0.0126953H22.5019C24.7163 0.0152237 26.8377 0.895857 28.4037 2.46146ZM28.1654 8.36489C28.1633 6.86319 27.566 5.42356 26.5044 4.3614C25.4429 3.29925 24.0036 2.70118 22.5019 2.69824H8.93752C7.43528 2.70034 5.99516 3.29803 4.93292 4.36028C3.87067 5.42253 3.27297 6.86265 3.27087 8.36489V21.9293C3.27339 23.4312 3.87127 24.8709 4.93348 25.9328C5.99568 26.9947 7.43555 27.5922 8.93752 27.5943H22.5019C24.0036 27.5918 25.4431 26.9941 26.5049 25.9323C27.5668 24.8704 28.1644 23.431 28.167 21.9293L28.1654 8.36489Z" fill="#D9222D"/>
<path d="M21.24 9.63336C22.5168 10.9104 23.3113 12.5906 23.4882 14.3877C23.6651 16.1848 23.2134 17.9876 22.21 19.4891C21.2067 20.9905 19.7139 22.0976 17.9858 22.6217C16.2578 23.1459 14.4014 23.0547 12.7331 22.3636C11.0647 21.6725 9.68762 20.4244 8.83635 18.8319C7.98508 17.2393 7.71232 15.4008 8.06455 13.6297C8.41678 11.8586 9.3722 10.2644 10.768 9.11874C12.1639 7.97307 13.9138 7.34682 15.7196 7.34668C16.7448 7.3466 17.7601 7.5485 18.7073 7.94086C19.6545 8.33321 20.5151 8.90833 21.24 9.63336ZM19.3331 18.761C20.1671 17.9249 20.6855 16.8254 20.7999 15.6499C20.9143 14.4745 20.6176 13.2957 19.9605 12.3144C19.3033 11.3331 18.3263 10.61 17.1959 10.2682C16.0654 9.92641 14.8514 9.98707 13.7606 10.4399C12.6699 10.8927 11.7698 11.7096 11.2138 12.7515C10.6577 13.7935 10.4801 14.9959 10.7111 16.1541C10.9421 17.3123 11.5675 18.3546 12.4807 19.1035C13.394 19.8523 14.5386 20.2614 15.7196 20.2611C17.0752 20.2592 18.3747 19.7197 19.3331 18.761Z" fill="#D9222D"/>
<path d="M25.2357 5.64764C25.5573 5.96958 25.7574 6.39308 25.8019 6.84599C25.8463 7.2989 25.7323 7.75322 25.4794 8.13153C25.2264 8.50985 24.8502 8.78877 24.4146 8.92077C23.9791 9.05278 23.5113 9.02971 23.0909 8.8555C22.6705 8.68128 22.3234 8.3667 22.1089 7.96533C21.8944 7.56396 21.8257 7.10065 21.9145 6.6543C22.0033 6.20796 22.2441 5.8062 22.5958 5.51746C22.9476 5.22873 23.3886 5.07088 23.8437 5.0708C24.1022 5.07076 24.3582 5.12168 24.5971 5.22066C24.836 5.31964 25.053 5.46473 25.2357 5.64764Z" fill="#D9222D"/>
</svg>
